# xmcd
#
# Track frame offsets:
#	150
#	23670
#	43517
#	60971
#
# Disc length: 1090 seconds
#
# Revision: 1
# Processed by: cddbd v1.5.1PL0 Copyright (c) Steve Scherf et al.
# Submitted via: EasyCDDAExtractor 7.0.9.1
#
DISCID=23044004
DTITLE=2 Souls - In The Heat Of The Night
DYEAR=2005
DGENRE=Blues
TTITLE0=In The Heat Of The Night
TTITLE1=Wake Me Up
TTITLE2=I Feel Alive
TTITLE3=Everybody (live version)
EXTD=
EXTT0=
EXTT1=
EXTT2=
EXTT3=
PLAYORDER=
